<svg width="551" height="433" viewBox="0 0 551 433" fill="none" xmlns="http://www.w3.org/2000/svg">
<path d="M283.359 0.887939C277.627 1.53931 263.297 2.97235 251.572 4.01453C196.857 9.35577 153.606 24.207 110.355 52.737C57.334 87.3899 24.6351 135.982 9.91417 201.64C8.22061 209.326 5.87567 216.882 4.83348 218.576C0.0133461 226.262 -1.68022 273.812 1.96745 296.61C13.8224 369.563 73.0971 416.983 169.5 430.401C206.498 435.482 289.743 431.964 334.166 423.366C395.655 411.511 458.057 376.207 492.71 333.477C515.768 305.208 532.964 268.34 540.651 231.212C542.214 223.787 544.428 215.71 545.861 213.234C550.942 203.334 552.766 162.688 548.988 138.066C538.175 65.2433 482.418 18.0841 388.881 2.71179C373.9 0.236572 301.077 -0.935883 283.359 0.887939ZM305.897 45.9627C319.836 48.0471 331.951 51.4342 340.419 55.7333C358.918 65.2433 374.03 92.3403 378.459 123.606L379.241 129.859H411.028C433.174 129.859 443.075 130.25 443.727 131.292C445.42 134.028 445.811 173.371 444.378 187.44C443.596 195.126 441.642 205.809 440.079 211.15L437.213 221.051L344.718 221.311L252.224 221.702C248.183 222.439 246.106 223.624 242.649 226.75C239.88 229.254 238.828 229.814 237.275 236.032C234.421 247.46 243.028 256.902 244.277 257.463C248.185 260.133 247.273 260.133 300.946 260.133H358.267L358.137 262.999C358.137 264.693 355.14 290.357 351.362 319.929L344.588 373.993L334.427 378.292C314.104 387.15 307.069 388.323 278.148 388.323C222 388.323 198.421 377.38 182.918 344.03C178.619 334.65 174.19 319.277 172.626 307.944L171.845 301.69L140.188 302.602C113.743 303.384 108.271 303.254 107.359 301.69C105.535 298.955 105.144 254.271 106.708 241.374C107.489 235.12 109.313 226.001 110.746 221.051L113.482 211.932L185.393 211.801C224.997 211.671 266.684 211.28 278.148 210.759C286.034 210.359 291.378 211.406 297.527 208.61C302.406 203.466 305.832 200.305 306.32 192.488C305.832 183.206 301.435 179.298 299.481 176.986C295.084 174.901 298.471 171.417 250.139 172.198L192.819 173.11V169.462C192.819 163.34 205.455 61.3351 206.237 59.902C207.54 57.6874 220.307 52.2159 232.031 48.4379C251.182 42.5756 276.455 41.6637 305.897 45.9627Z" fill="#105E46"/>
</svg>
